<svg width="320" height="120" viewBox="0 0 320 120" fill="none" xmlns="http://www.w3.org/2000/svg">
  <defs>
    <linearGradient id="backgroundGradient" x1="0" y1="0" x2="320" y2="120" gradientUnits="userSpaceOnUse">
      <stop offset="0%" stop-color="#040C1D" />
      <stop offset="50%" stop-color="#0B1F3C" />
      <stop offset="100%" stop-color="#122752" />
    </linearGradient>
    <linearGradient id="goldGradient" x1="0" y1="0" x2="0" y2="1" gradientUnits="objectBoundingBox">
      <stop offset="0%" stop-color="#F0E3B6" />
      <stop offset="55%" stop-color="#D6B462" />
      <stop offset="100%" stop-color="#B78E37" />
    </linearGradient>
    <clipPath id="rounded">
      <rect width="320" height="120" rx="28" />
    </clipPath>
  </defs>
  <g clip-path="url(#rounded)">
    <rect width="320" height="120" fill="url(#backgroundGradient)" />
    <g transform="translate(46 14)">
      <circle cx="60" cy="60" r="58" fill="none" stroke="url(#goldGradient)" stroke-width="3" />
      <circle cx="60" cy="60" r="44" fill="none" stroke="#1B325F" stroke-width="2" />
      <circle cx="60" cy="60" r="30" fill="none" stroke="#1B325F" stroke-width="1.5" />
      <line x1="16" y1="60" x2="104" y2="60" stroke="#1B325F" stroke-width="1.6" />
      <line x1="60" y1="16" x2="60" y2="104" stroke="#1B325F" stroke-width="1.6" />
      <path d="M28 36c12 8 52 8 64 0" stroke="#1B325F" stroke-width="1.4" fill="none" />
      <path d="M28 84c12-8 52-8 64 0" stroke="#1B325F" stroke-width="1.4" fill="none" />
      <g transform="translate(60 60)">
        <g transform="translate(-60 -60)" fill="url(#goldGradient)">
          <path d="M34.5 29.5h51v12h-16v46h-19v-46h-16v-12Z" />
          <path d="M92 87.5V40.8h-7.5l-8.3 11.8-8.3-11.8H60v46.7h12.5V66.7l5.9 8.4h6l5.9-8.4v20.8H92Z" />
        </g>
      </g>
      <g fill="url(#goldGradient)" opacity="0.94">
        <ellipse cx="16" cy="58" rx="5" ry="14" transform="rotate(-55 16 58)" />
        <ellipse cx="22" cy="44" rx="5" ry="14" transform="rotate(-45 22 44)" />
        <ellipse cx="32" cy="32" rx="5" ry="14" transform="rotate(-35 32 32)" />
        <ellipse cx="45" cy="23" rx="5" ry="12" transform="rotate(-20 45 23)" />
        <ellipse cx="60" cy="18" rx="5" ry="12" />
        <ellipse cx="75" cy="23" rx="5" ry="12" transform="rotate(20 75 23)" />
        <ellipse cx="88" cy="32" rx="5" ry="14" transform="rotate(35 88 32)" />
        <ellipse cx="98" cy="44" rx="5" ry="14" transform="rotate(45 98 44)" />
        <ellipse cx="104" cy="58" rx="5" ry="14" transform="rotate(55 104 58)" />
      </g>
      <path d="M21 75c8 12 18 24 39 35" stroke="url(#goldGradient)" stroke-width="3" stroke-linecap="round" fill="none" />
      <path d="M99 75c-8 12-18 24-39 35" stroke="url(#goldGradient)" stroke-width="3" stroke-linecap="round" fill="none" />
    </g>
    <text x="172" y="98" text-anchor="middle" font-family="'Playfair Display', 'Times New Roman', serif" font-size="26" letter-spacing="4" fill="#F3E7C5">TIM MILLER</text>
    <text x="172" y="112" text-anchor="middle" font-family="Poppins, Arial, sans-serif" font-size="11" letter-spacing="4" fill="#9FAED1">RECRUITING</text>
  </g>
</svg>
