<svg width="160" height="160" viewBox="0 0 160 160" fill="none" xmlns="http://www.w3.org/2000/svg">
  <defs>
    <linearGradient id="markBackground" x1="0" y1="0" x2="160" y2="160" gradientUnits="userSpaceOnUse">
      <stop offset="0%" stop-color="#050E20" />
      <stop offset="50%" stop-color="#0A1D39" />
      <stop offset="100%" stop-color="#112955" />
    </linearGradient>
    <linearGradient id="markGold" x1="0" y1="0" x2="0" y2="1" gradientUnits="objectBoundingBox">
      <stop offset="0%" stop-color="#F4E6BB" />
      <stop offset="60%" stop-color="#D6B462" />
      <stop offset="100%" stop-color="#B78E37" />
    </linearGradient>
  </defs>
  <rect width="160" height="160" rx="36" fill="url(#markBackground)" />
  <g transform="translate(20 20)">
    <circle cx="60" cy="60" r="58" fill="none" stroke="url(#markGold)" stroke-width="4" />
    <circle cx="60" cy="60" r="44" fill="none" stroke="#1B325F" stroke-width="2.5" />
    <circle cx="60" cy="60" r="30" fill="none" stroke="#1B325F" stroke-width="2" />
    <line x1="18" y1="60" x2="102" y2="60" stroke="#1B325F" stroke-width="2" />
    <line x1="60" y1="18" x2="60" y2="102" stroke="#1B325F" stroke-width="2" />
    <path d="M30 38c12 8 48 8 60 0" stroke="#1B325F" stroke-width="1.6" fill="none" />
    <path d="M30 82c12-8 48-8 60 0" stroke="#1B325F" stroke-width="1.6" fill="none" />
    <g fill="url(#markGold)">
      <ellipse cx="16" cy="59" rx="5" ry="15" transform="rotate(-55 16 59)" />
      <ellipse cx="22" cy="44" rx="5" ry="14" transform="rotate(-45 22 44)" />
      <ellipse cx="34" cy="32" rx="5" ry="13" transform="rotate(-30 34 32)" />
      <ellipse cx="48" cy="24" rx="5" ry="12" transform="rotate(-12 48 24)" />
      <ellipse cx="60" cy="20" rx="5" ry="12" />
      <ellipse cx="72" cy="24" rx="5" ry="12" transform="rotate(12 72 24)" />
      <ellipse cx="86" cy="32" rx="5" ry="13" transform="rotate(30 86 32)" />
      <ellipse cx="98" cy="44" rx="5" ry="14" transform="rotate(45 98 44)" />
      <ellipse cx="104" cy="59" rx="5" ry="15" transform="rotate(55 104 59)" />
    </g>
    <path d="M22 76c9 13 20 26 38 37" stroke="url(#markGold)" stroke-width="3.2" stroke-linecap="round" fill="none" />
    <path d="M98 76c-9 13-20 26-38 37" stroke="url(#markGold)" stroke-width="3.2" stroke-linecap="round" fill="none" />
    <g transform="translate(0 -6)" fill="url(#markGold)">
      <path d="M34 34h52v12H70v46H51V46H34V34Z" />
      <path d="M94 92V44h-8l-8 12-8-12H62v48h12V68l6 8h6l6-8v24h12Z" />
    </g>
  </g>
  <text x="80" y="138" text-anchor="middle" font-family="'Playfair Display', 'Times New Roman', serif" font-size="18" letter-spacing="4" fill="#F3E7C5">TIM MILLER</text>
</svg>
